<svg width="109" height="19" viewBox="0 0 109 19" fill="none" xmlns="http://www.w3.org/2000/svg">
<path d="M13.5 0.999999V15H10.28V3.64H3.96V15H0.74V0.999999H13.5ZM23.0305 0.999999C24.2705 0.999999 25.3438 1.20667 26.2505 1.62C27.1705 2.03333 27.8771 2.62 28.3705 3.38C28.8638 4.14 29.1105 5.04 29.1105 6.08C29.1105 7.10667 28.8638 8.00667 28.3705 8.78C27.8771 9.54 27.1705 10.1267 26.2505 10.54C25.3438 10.94 24.2705 11.14 23.0305 11.14H20.2105V15H16.9705V0.999999H23.0305ZM22.8505 8.5C23.8238 8.5 24.5638 8.29333 25.0705 7.88C25.5771 7.45333 25.8305 6.85333 25.8305 6.08C25.8305 5.29333 25.5771 4.69333 25.0705 4.28C24.5638 3.85333 23.8238 3.64 22.8505 3.64H20.2105V8.5H22.8505ZM38.1231 15.24C36.6698 15.24 35.3565 14.9267 34.1831 14.3C33.0231 13.6733 32.1098 12.8133 31.4431 11.72C30.7898 10.6133 30.4631 9.37333 30.4631 8C30.4631 6.62667 30.7898 5.39333 31.4431 4.3C32.1098 3.19333 33.0231 2.32667 34.1831 1.7C35.3565 1.07333 36.6698 0.76 38.1231 0.76C39.5765 0.76 40.8831 1.07333 42.0431 1.7C43.2031 2.32667 44.1165 3.19333 44.7831 4.3C45.4498 5.39333 45.7831 6.62667 45.7831 8C45.7831 9.37333 45.4498 10.6133 44.7831 11.72C44.1165 12.8133 43.2031 13.6733 42.0431 14.3C40.8831 14.9267 39.5765 15.24 38.1231 15.24ZM38.1231 12.48C38.9498 12.48 39.6965 12.2933 40.3631 11.92C41.0298 11.5333 41.5498 11 41.9231 10.32C42.3098 9.64 42.5031 8.86667 42.5031 8C42.5031 7.13333 42.3098 6.36 41.9231 5.68C41.5498 5 41.0298 4.47333 40.3631 4.1C39.6965 3.71333 38.9498 3.52 38.1231 3.52C37.2965 3.52 36.5498 3.71333 35.8831 4.1C35.2165 4.47333 34.6898 5 34.3031 5.68C33.9298 6.36 33.7431 7.13333 33.7431 8C33.7431 8.86667 33.9298 9.64 34.3031 10.32C34.6898 11 35.2165 11.5333 35.8831 11.92C36.5498 12.2933 37.2965 12.48 38.1231 12.48ZM64.8591 7.96C64.8591 9.81333 64.2257 11.2733 62.9591 12.34C61.7057 13.3933 59.8991 13.98 57.5391 14.1V15.62H54.5591V14.08C52.1857 13.9467 50.3657 13.3533 49.0991 12.3C47.8457 11.2333 47.2191 9.78667 47.2191 7.96C47.2191 6.12 47.8457 4.68 49.0991 3.64C50.3657 2.58667 52.1857 1.98667 54.5591 1.84V0.4H57.5391V1.82C59.8991 1.95333 61.7057 2.55333 62.9591 3.62C64.2257 4.68667 64.8591 6.13333 64.8591 7.96ZM57.5391 11.56C58.9524 11.4267 60.0057 11.0667 60.6991 10.48C61.3924 9.88 61.7391 9.03333 61.7391 7.94C61.7391 5.80667 60.3391 4.62 57.5391 4.38V11.56ZM50.3591 7.96C50.3591 10.0667 51.7591 11.2667 54.5591 11.56V4.38C53.1324 4.51333 52.0724 4.87333 51.3791 5.46C50.6991 6.03333 50.3591 6.86667 50.3591 7.96ZM74.023 15.12C72.6363 15.12 71.383 14.8133 70.263 14.2C69.1563 13.5867 68.283 12.74 67.643 11.66C67.0163 10.5667 66.703 9.34667 66.703 8C66.703 6.65333 67.0163 5.44 67.643 4.36C68.283 3.26667 69.163 2.41333 70.283 1.8C71.403 1.18667 72.6563 0.879999 74.043 0.879999C75.083 0.879999 76.043 1.05333 76.923 1.4C77.803 1.74667 78.5496 2.25333 79.163 2.92L78.223 3.86C77.1296 2.75333 75.7496 2.2 74.083 2.2C72.9763 2.2 71.9696 2.45333 71.063 2.96C70.1563 3.46667 69.443 4.16 68.923 5.04C68.4163 5.92 68.163 6.90667 68.163 8C68.163 9.09333 68.4163 10.08 68.923 10.96C69.443 11.84 70.1563 12.5333 71.063 13.04C71.9696 13.5467 72.9763 13.8 74.083 13.8C75.763 13.8 77.143 13.24 78.223 12.12L79.163 13.06C78.5496 13.7267 77.7963 14.24 76.903 14.6C76.023 14.9467 75.063 15.12 74.023 15.12ZM94.7083 13.72V18.14H93.3283V15H81.1083L81.0883 18.14H79.7083L79.7283 13.72H80.4283C81.3483 13.6667 81.9883 12.94 82.3483 11.54C82.7083 10.1267 82.9283 8.12667 83.0083 5.54L83.1683 0.999999H92.6083V13.72H94.7083ZM84.3283 5.68C84.2616 7.81333 84.0949 9.57333 83.8283 10.96C83.5749 12.3333 83.1416 13.2533 82.5283 13.72H91.1483V2.28H84.4483L84.3283 5.68ZM103.847 15.12C102.461 15.12 101.207 14.8133 100.087 14.2C98.9805 13.5867 98.1072 12.74 97.4672 11.66C96.8405 10.5667 96.5272 9.34667 96.5272 8C96.5272 6.65333 96.8405 5.44 97.4672 4.36C98.1072 3.26667 98.9872 2.41333 100.107 1.8C101.227 1.18667 102.481 0.879999 103.867 0.879999C104.907 0.879999 105.867 1.05333 106.747 1.4C107.627 1.74667 108.374 2.25333 108.987 2.92L108.047 3.86C106.954 2.75333 105.574 2.2 103.907 2.2C102.801 2.2 101.794 2.45333 100.887 2.96C99.9805 3.46667 99.2672 4.16 98.7472 5.04C98.2405 5.92 97.9872 6.90667 97.9872 8C97.9872 9.09333 98.2405 10.08 98.7472 10.96C99.2672 11.84 99.9805 12.5333 100.887 13.04C101.794 13.5467 102.801 13.8 103.907 13.8C105.587 13.8 106.967 13.24 108.047 12.12L108.987 13.06C108.374 13.7267 107.621 14.24 106.727 14.6C105.847 14.9467 104.887 15.12 103.847 15.12Z" fill="white"/>
</svg>
